<?xml version="1.0" encoding="UTF-8" standalone="no"?>
<!-- Created with Inkscape (http://www.inkscape.org/) -->

<svg
   width="210mm"
   height="297mm"
   viewBox="0 0 210 297"
   version="1.1"
   id="svg5"
   xml:space="preserve"
   inkscape:version="1.2.2 (b0a8486541, 2022-12-01)"
   sodipodi:docname="trailer.svg"
   xmlns:inkscape="http://www.inkscape.org/namespaces/inkscape"
   xmlns:sodipodi="http://sodipodi.sourceforge.net/DTD/sodipodi-0.dtd"
   xmlns="http://www.w3.org/2000/svg"
   xmlns:svg="http://www.w3.org/2000/svg"><sodipodi:namedview
     id="namedview7"
     pagecolor="#ffffff"
     bordercolor="#000000"
     borderopacity="0.25"
     inkscape:showpageshadow="2"
     inkscape:pageopacity="0.0"
     inkscape:pagecheckerboard="0"
     inkscape:deskcolor="#d1d1d1"
     inkscape:document-units="mm"
     showgrid="false"
     inkscape:zoom="1.502526"
     inkscape:cx="340.42673"
     inkscape:cy="373.70403"
     inkscape:window-width="1534"
     inkscape:window-height="831"
     inkscape:window-x="66"
     inkscape:window-y="32"
     inkscape:window-maximized="1"
     inkscape:current-layer="layer1" /><defs
     id="defs2" /><g
     inkscape:label="Layer 1"
     inkscape:groupmode="layer"
     id="layer1"><path
       style="fill:#000000;stroke-width:0.264583"
       d="m 104.45385,112.25354 c -2.3267,-0.37881 -5.014744,-1.85019 -6.694304,-3.66432 -1.80222,-1.94661 -2.82594,-4.05366 -3.18852,-6.56269 -0.54509,-3.772024 0.56306,-7.146748 3.27369,-9.969593 3.414874,-3.556238 7.969894,-4.63259 12.788714,-3.021986 1.48062,0.494871 1.56463,0.496991 1.89312,0.04775 0.32706,-0.447273 0.39027,-0.447918 1.30169,-0.01331 0.92201,0.439679 0.9428,0.47989 0.55461,1.07234 -0.38549,0.588336 -0.3496,0.671576 0.8121,1.883998 1.37265,1.432578 2.90964,4.409606 3.16878,6.13769 0.14876,0.992018 0.26196,1.154454 0.80454,1.154454 0.49142,0 0.63141,0.141851 0.63141,0.639818 0,0.351899 0.0723,0.828149 0.1606,1.058329 0.12422,0.32372 -0.0173,0.41852 -0.62493,0.41852 -0.74164,0 -0.80208,0.0824 -1.0818,1.47524 -0.58338,2.90487 -2.76207,6.0299 -5.33721,7.65552 -2.36165,1.49084 -5.64802,2.14646 -8.46249,1.68823 z m 6.54899,-3.12759 c 2.65356,-1.42215 4.64275,-4.02449 5.22189,-6.8315 l 0.17741,-0.8599 h -5.12747 c -5.2937,0 -5.76249,-0.0894 -5.76249,-1.09917 0,-0.25529 1.19434,-2.320428 2.65409,-4.589201 1.45974,-2.268771 2.59391,-4.222406 2.52036,-4.341413 -0.27983,-0.452771 -2.73776,-0.947579 -4.58171,-0.922346 -1.64879,0.02257 -2.199,0.16378 -3.88532,0.997202 -5.228464,2.584045 -7.105184,8.294156 -4.424364,13.461568 1.13625,2.19019 2.697904,3.63098 4.973754,4.58884 1.35519,0.57036 1.87212,0.64257 4.06611,0.56796 2.2595,-0.0768 2.68073,-0.17508 4.16774,-0.97204 z m 5.22843,-10.667961 c -0.28272,-1.422699 -1.63368,-3.97818 -2.59545,-4.909529 l -0.9032,-0.874631 -1.8864,2.893031 c -1.03753,1.591165 -1.96049,3.086079 -2.05103,3.322027 -0.1472,0.383606 0.24652,0.428998 3.72117,0.428998 h 3.88578 z m 20.91265,13.807831 c -0.71989,-0.12044 -2.16586,-0.64252 -3.21328,-1.16018 -4.69191,-2.31886 -7.37846,-7.533 -6.5052,-12.625453 0.44807,-2.612945 1.45935,-4.565523 3.38871,-6.542908 l 1.65499,-1.69618 -0.51927,-1.017857 c -0.2856,-0.559822 -0.60615,-1.015379 -0.71234,-1.012347 -0.10618,0.003 -1.56227,2.311787 -3.23576,5.13057 -1.67349,2.818784 -3.1172,4.989196 -3.20823,4.823138 -0.091,-0.166061 -0.24497,-0.852829 -0.34206,-1.526154 -0.1713,-1.187826 -0.10934,-1.335736 2.08375,-4.97468 1.24316,-2.062747 2.26029,-3.863332 2.26029,-4.001294 0,-0.144963 -1.42528,-0.250841 -3.37669,-0.250841 h -3.37668 l -1.98113,-1.051372 -1.98113,-1.051372 5.86835,-0.007 5.86836,-0.007 -0.66546,-1.190625 -0.66545,-1.190625 h 1.20119 1.20119 l 1.79066,3.180739 c 1.3409,2.381829 1.89219,3.140339 2.19487,3.019896 1.32074,-0.52555 4.21173,-0.917684 5.54395,-0.751983 6.43478,0.800351 10.86755,5.700686 10.86755,12.013838 0,5.94629 -4.05508,10.79932 -9.93133,11.88561 -1.72663,0.31918 -2.32261,0.31975 -4.20985,0.004 z m 5.87207,-2.68177 c 1.96562,-0.72773 4.08463,-2.75173 5.15387,-4.92279 1.62956,-3.30875 1.25754,-7.279311 -0.95366,-10.178379 -1.91946,-2.516587 -4.90813,-4.002996 -7.99632,-3.97695 -1.49624,0.01262 -3.5452,0.468813 -3.5452,0.789326 0,0.07613 1.08033,2.141935 2.40074,4.590677 2.05313,3.80763 2.35825,4.531626 2.10735,5.000436 -0.29541,0.55198 -0.95662,0.70565 -1.48748,0.34569 -0.15767,-0.10691 -1.33622,-2.129149 -2.61899,-4.493863 -1.28277,-2.364714 -2.45212,-4.299479 -2.59856,-4.299479 -0.55877,0 -2.41066,2.290977 -3.1956,3.953293 -0.71576,1.515798 -0.81939,2.019665 -0.81939,3.984209 0,1.96921 0.10293,2.46694 0.82743,4.00139 1.03453,2.19106 2.30722,3.61582 4.11356,4.60506 2.70792,1.483 5.67193,1.68997 8.61225,0.60138 z m -21.81705,-7.95106 c -0.41853,-0.45712 -0.76131,-1.791082 -1.47664,-5.74646 -0.51236,-2.83313 -1.03198,-5.190112 -1.1547,-5.23774 -0.12272,-0.04762 -2.00906,-1.003829 -4.19188,-2.124895 l -3.96875,-2.038303 -0.0701,-1.058333 c -0.0639,-0.964586 0.29086,-1.617313 4.0048,-7.368795 2.2412,-3.470754 4.25641,-6.491965 4.47825,-6.713802 0.56291,-0.562909 1.72535,-0.502942 2.34949,0.121203 0.2885,0.288499 1.38074,1.88096 2.4272,3.538802 l 1.90266,3.014258 3.92123,0.311585 c 4.39951,0.349588 4.93126,0.577183 4.93126,2.110673 0,1.071513 -0.78363,1.943368 -1.74672,1.943368 -1.62087,0 -8.48923,-0.622978 -9.01621,-0.817793 -0.32253,-0.119237 -1.18971,-1.216648 -1.96864,-2.491326 -0.7657,-1.253018 -1.47767,-2.331054 -1.58217,-2.395637 -0.18516,-0.114433 -5.00085,7.367001 -5.00085,7.769085 0,0.111228 1.43527,0.911908 3.18948,1.779286 1.75421,0.867378 3.41318,1.815918 3.6866,2.107864 0.36561,0.390388 0.74675,1.947823 1.44073,5.88712 0.51898,2.945969 0.94361,5.714172 0.94361,6.15156 0,1.65848 -1.99172,2.46726 -3.09866,1.25828 z m -0.26193,-31.673145 c -3.03785,-1.852285 -1.66517,-6.625295 1.90538,-6.625295 2.01216,0 3.5699,1.558603 3.5699,3.571875 0,2.798783 -3.07785,4.515219 -5.47528,3.05342 z"
       id="path2374"
       sodipodi:nodetypes="sssssssssssscssssssscsssssssssssscssscscssscscsssssscccccccccsssssccssssssssssssssssssscssssscsssssssssssssssss" /><circle
       style="fill:none;stroke:#000000;stroke-width:1.7;stroke-dasharray:none"
       id="path2423"
       cx="64.711258"
       cy="102.96699"
       r="8.1023092" /><circle
       style="fill:none;stroke:#000000;stroke-width:1.7;stroke-dasharray:none"
       id="path2423-3"
       cx="70.641373"
       cy="98.357399"
       r="8.1023092" /><path
       style="fill:none;stroke:#000000;stroke-width:1.7;stroke-linecap:round;stroke-dasharray:none"
       d="M 54.488936,98.062659 H 89.28462"
       id="path4074" /><path
       style="fill:none;stroke:#000000;stroke-width:1.7;stroke-linecap:round;stroke-dasharray:none"
       d="m 89.316605,98.134306 -6.058627,6.058624"
       id="path4078" /><path
       style="fill:none;stroke:#000000;stroke-width:1.7;stroke-linecap:round;stroke-dasharray:none"
       d="m 54.228301,98.046246 -6.058627,6.058624"
       id="path4078-6" /><path
       style="fill:none;stroke:#000000;stroke-width:1.7;stroke-linecap:round;stroke-dasharray:none"
       d="M 83.022892,104.19466 H 48.816752"
       id="path4080" /><path
       style="fill:none;stroke:#000000;stroke-width:1.7;stroke-linecap:round;stroke-dasharray:none"
       d="m 82.876994,104.21126 c 15.187207,0.42484 26.056856,-3.5453 26.056856,-3.5453"
       id="path4136"
       sodipodi:nodetypes="cc" /></g></svg>
